<svg version="1.1" id="Layer_1" xmlns="http://www.w3.org/2000/svg" xmlns:xlink="http://www.w3.org/1999/xlink" x="0px" y="0px"
	 width="100%" viewBox="10 20 470 466" xml:space="preserve">

<path fill="#0BD7FA" opacity="1.000000" stroke="none" 
	d="
M73.194229,248.999969 
	C72.915649,237.355515 72.348709,226.150742 72.465179,215.077850 
	C72.697876,192.953644 73.183395,170.821594 73.152069,148.687897 
	C73.148361,146.064316 74.942139,145.350189 76.624985,144.364426 
	C97.142097,132.346100 117.608185,120.239037 138.205811,108.360146 
	C167.695877,91.352875 197.308151,74.557449 226.788498,57.533466 
	C229.465622,55.987507 231.438568,55.883621 234.056183,57.442467 
	C245.059479,63.995140 256.242462,70.247955 267.201233,76.872612 
	C272.183289,79.884285 277.932434,81.091537 282.797424,84.383224 
	C295.418335,92.922623 308.657257,100.466713 321.855011,108.073151 
	C342.462006,119.949829 362.974396,131.991257 383.633453,143.776031 
	C386.801422,145.583160 387.907745,147.577255 387.892731,151.214371 
	C387.760742,183.181625 387.854004,215.149780 387.855774,247.117661 
	C387.857208,272.462952 387.762665,297.808533 387.881866,323.153168 
	C387.897064,326.388947 386.961273,328.208557 384.112854,329.861420 
	C352.594391,348.150299 321.212555,366.674805 289.684875,384.947662 
	C271.260468,395.626068 252.609528,405.913086 234.141495,416.517212 
	C231.485077,418.042542 229.660980,417.979736 226.935471,416.414520 
	C208.394791,405.767029 189.415680,395.859253 171.116165,384.820709 
	C140.348801,366.261353 108.931473,348.833191 77.991951,330.578308 
	C74.355141,328.432556 73.047974,326.196808 73.086609,321.976593 
	C73.307816,297.819397 73.194138,273.659180 73.194229,248.999969 
z"/>
<path fill="#222424" opacity="1.000000" stroke="none" 
	d="
M255.850067,395.850464 
	C248.185211,400.293884 240.804886,404.499573 233.519531,408.863800 
	C231.432693,410.113922 229.793121,410.194916 227.612061,408.929749 
	C179.498077,381.020111 131.351852,353.165863 83.155693,325.398438 
	C80.739395,324.006378 80.132385,322.401825 80.135239,319.816284 
	C80.196228,264.651337 80.201057,209.486221 80.124931,154.321274 
	C80.121040,151.501038 80.916199,149.820786 83.430290,148.372421 
	C131.483093,120.689163 179.497299,92.938728 227.461502,65.102264 
	C229.881470,63.697807 231.593460,63.986393 233.809235,65.270531 
	C281.357269,92.826492 328.916687,120.363113 376.555878,147.760895 
	C379.788422,149.619949 380.752228,151.722473 380.745636,155.287079 
	C380.644867,209.785278 380.639069,264.283844 380.757141,318.781952 
	C380.765015,322.427368 379.611145,324.422272 376.459106,326.233337 
	C336.316101,349.298370 296.253632,372.503479 255.850067,395.850464 
z"/>
<path fill="#01D4F8" opacity="1.000000" stroke="none" 
	d="
M123.154022,204.134613 
	C131.902542,199.553864 140.618454,195.820175 149.766693,193.223816 
	C152.475540,192.455002 152.887833,191.581863 152.258194,188.766159 
	C148.862656,173.581818 146.812408,158.274734 150.024673,142.745819 
	C150.192871,141.932678 150.355927,141.116394 150.574387,140.316040 
	C155.583099,121.966095 167.738800,114.870941 186.125641,119.666054 
	C202.243912,123.869537 215.107483,133.625351 227.227371,144.425598 
	C229.966095,146.866150 231.339783,147.065765 233.974045,144.497269 
	C242.000198,136.671448 251.033951,130.135315 260.933868,124.836418 
	C266.397919,121.911797 272.127228,119.777000 278.267731,118.690399 
	C293.640228,115.970146 304.177307,122.245415 309.081726,137.135803 
	C312.814606,148.469269 312.646301,160.105789 311.608948,171.758133 
	C311.152893,176.881256 310.344727,182.024994 309.097137,187.009369 
	C308.084106,191.056625 308.907410,192.774780 313.118317,194.052185 
	C325.425507,197.785599 337.110748,202.980652 347.554871,210.697266 
	C369.473358,226.891663 369.627045,246.455460 347.969788,262.920898 
	C337.630951,270.781250 325.988373,276.054779 313.768616,280.059998 
	C309.875519,281.335999 308.694672,282.613617 309.661560,286.991943 
	C312.836060,301.366852 314.474579,315.919067 311.027008,330.538177 
	C310.266327,333.763672 309.304108,336.984863 308.027802,340.037964 
	C302.937103,352.215454 292.420135,357.835114 279.447876,355.596680 
	C262.848053,352.732300 249.820282,343.297211 237.415833,332.760406 
	C231.034714,327.340027 231.131912,327.267670 224.919220,332.516174 
	C214.687790,341.159668 203.884399,348.940552 191.027847,353.227142 
	C167.409561,361.101868 152.120148,351.207123 149.119141,326.465210 
	C147.511780,313.213257 148.820496,300.196777 151.833694,287.315430 
	C152.721680,283.519287 151.965149,281.952911 147.978912,280.725616 
	C135.027740,276.738281 122.852463,271.026978 112.141312,262.510406 
	C91.550728,246.138596 91.786934,226.558441 112.861008,210.951233 
	C116.067055,208.576859 119.497826,206.505920 123.154022,204.134613 
z"/>
<path fill="#212525" opacity="1.000000" stroke="none" 
	d="
M279.007202,236.949860 
	C272.594360,251.101761 264.749084,264.041534 256.677185,276.863159 
	C255.307495,279.038818 253.520126,279.596771 251.283066,279.695770 
	C237.468903,280.307220 223.653961,280.237885 209.836899,279.781006 
	C207.490784,279.703400 205.888290,278.811737 204.520020,276.773926 
	C196.434967,264.732574 189.312057,252.150513 182.782684,239.210968 
	C181.903427,237.468521 182.129562,236.186981 182.936096,234.584671 
	C189.376236,221.790115 196.368179,209.321869 204.347946,197.411926 
	C205.572372,195.584442 206.953827,194.654953 209.172134,194.520569 
	C223.478882,193.653885 237.777283,193.575150 252.080856,194.585999 
	C254.061920,194.725998 255.442993,195.381683 256.562897,197.137024 
	C264.711060,209.908310 272.590485,222.826889 279.007202,236.949860 
z"/>
<path fill="#212424" opacity="1.000000" stroke="none" 
	d="
M124.001328,257.052612 
	C119.403847,253.958176 115.441895,250.666626 112.242294,246.564285 
	C106.728813,239.495224 106.866005,233.643356 112.586426,226.758499 
	C116.466606,222.088455 121.291306,218.557892 126.439888,215.466614 
	C134.605331,210.564011 143.486404,207.287048 152.451263,204.197815 
	C155.249496,203.233582 156.524017,203.828339 157.382156,206.868912 
	C159.957825,215.995163 163.700180,224.712616 167.603745,233.340042 
	C168.709869,235.784729 168.914566,237.868088 167.771713,240.398712 
	C163.669357,249.482590 159.745819,258.657501 157.035324,268.273376 
	C156.290253,270.916626 155.041840,271.267731 152.672043,270.447205 
	C142.759781,267.015198 133.040024,263.195984 124.001328,257.052612 
z"/>
<path fill="#222424" opacity="1.000000" stroke="none" 
	d="
M192.346954,340.520966 
	C187.522568,342.516296 182.988815,344.121185 178.074921,344.318146 
	C169.632385,344.656464 166.037979,342.352264 162.863083,334.370483 
	C159.049927,324.784119 159.513412,314.779327 160.380249,304.827698 
	C160.839493,299.555420 162.146332,294.359283 163.013596,289.119354 
	C163.480911,286.295898 164.179916,284.950684 167.820816,285.789612 
	C177.363846,287.988342 187.066986,289.519104 196.878113,290.045349 
	C199.083618,290.163635 200.540405,291.045044 201.822586,292.812408 
	C207.784622,301.030304 213.989212,309.072510 220.986740,316.438599 
	C223.001709,318.559723 222.157654,319.633789 220.496460,321.141907 
	C212.078247,328.784546 203.046524,335.521576 192.346954,340.520966 
z"/>
<path fill="#212424" opacity="1.000000" stroke="none" 
	d="
M284.925751,129.386444 
	C292.465454,129.554153 296.025482,133.988785 298.049011,140.160400 
	C302.449982,153.583191 301.091309,167.144684 298.838348,180.693481 
	C297.360321,189.581863 297.257904,189.652527 288.388916,187.809357 
	C280.238434,186.115494 272.028473,184.863464 263.746521,184.111526 
	C261.900940,183.943954 260.724426,183.233688 259.678406,181.744537 
	C253.832794,173.422531 247.544235,165.445938 240.666656,157.946243 
	C239.474823,156.646622 238.436401,155.647568 240.350403,153.912979 
	C250.650665,144.578125 261.465759,136.056747 274.736084,131.253906 
	C277.889343,130.112656 281.195953,129.659042 284.925751,129.386444 
z"/>
<path fill="#222424" opacity="1.000000" stroke="none" 
	d="
M219.316162,159.267990 
	C212.956360,166.352905 207.315201,173.556885 201.929352,180.958969 
	C200.596024,182.791458 199.249405,183.955887 196.742218,184.167603 
	C187.139038,184.978500 177.634079,186.553955 168.218826,188.633438 
	C166.083481,189.105042 164.130707,189.813538 163.397064,186.505280 
	C160.536301,173.605209 158.731796,160.659927 160.798004,147.450012 
	C161.105072,145.486801 161.501511,143.514023 162.103851,141.624481 
	C165.391602,131.310791 170.813461,128.148712 181.415787,130.256027 
	C190.952209,132.151474 199.046112,137.108688 206.831284,142.556992 
	C211.181335,145.601303 215.041779,149.337585 219.322403,152.491196 
	C222.401627,154.759705 222.552917,156.719025 219.316162,159.267990 
z"/>
<path fill="#222424" opacity="1.000000" stroke="none" 
	d="
M251.430038,329.616699 
	C247.863205,326.584564 244.628510,323.712341 241.272705,320.989410 
	C239.249420,319.347656 239.402969,318.067871 241.105499,316.194580 
	C247.823288,308.803070 253.940842,300.919434 259.572845,292.670868 
	C260.685150,291.041779 261.894409,290.123962 263.968109,289.959778 
	C274.074249,289.159698 284.075745,287.600555 293.941071,285.253479 
	C296.532135,284.637024 297.810760,285.163818 298.406219,288.066162 
	C301.065430,301.027588 302.385071,314.012085 300.111664,327.173096 
	C300.055054,327.500763 300.028625,327.833954 299.963837,328.159790 
	C297.037994,342.869629 289.474213,347.385529 275.121307,342.891998 
	C266.424988,340.169434 259.029938,335.060333 251.430038,329.616699 
z"/>
<path fill="#212424" opacity="1.000000" stroke="none" 
	d="
M352.174011,239.999573 
	C348.939484,248.699722 342.045532,253.464935 335.038605,257.982788 
	C327.029663,263.146759 318.113434,266.421387 309.222412,269.732269 
	C306.208374,270.854675 305.203400,269.710480 304.278046,267.046844 
	C301.005829,257.627808 297.566406,248.259842 293.070099,239.337311 
	C292.151062,237.513504 292.195221,236.030411 293.083984,234.234528 
	C297.442596,225.427063 300.663757,216.153793 303.849274,206.885040 
	C304.740265,204.292587 305.740967,203.368530 308.453430,204.307922 
	C321.071686,208.677948 333.529694,213.422424 343.777527,222.320221 
	C348.929901,226.793839 353.889740,231.684341 352.174011,239.999573 
z"/>
<path fill="#202829" opacity="1.000000" stroke="none" 
	d="
M275.346497,277.044037 
	C273.482727,277.324249 272.030212,277.566437 269.255432,278.029114 
	C275.432648,268.786224 280.083588,259.833435 285.676392,249.986191 
	C288.662018,257.856354 291.313599,264.701569 293.841064,271.592316 
	C294.646606,273.788422 292.889801,273.971344 291.369110,274.237122 
	C286.163025,275.147003 280.961182,276.081116 275.346497,277.044037 
z"/>
<path fill="#202829" opacity="1.000000" stroke="none" 
	d="
M172.172668,259.171509 
	C173.584229,256.576721 173.823593,253.815598 175.972946,251.476074 
	C181.079208,260.251465 186.031921,268.763000 191.352722,277.907104 
	C183.597977,277.369202 176.581680,275.910583 169.547455,274.596436 
	C167.533203,274.220123 167.369278,272.947906 167.960587,271.274261 
	C169.340714,267.367950 170.683914,263.448578 172.172668,259.171509 
z"/>
<path fill="#212829" opacity="1.000000" stroke="none" 
	d="
M236.581146,291.645203 
	C239.824753,291.636780 242.612854,291.636780 246.091949,291.636780 
	C241.803864,298.065063 237.039139,303.662201 232.169495,309.180267 
	C231.042023,310.457886 230.134949,309.793121 229.312714,308.816406 
	C224.744949,303.390564 219.727478,298.321167 215.506714,291.653656 
	C222.753494,291.653656 229.439560,291.653656 236.581146,291.645203 
z"/>
<path fill="#20292A" opacity="1.000000" stroke="none" 
	d="
M291.626678,207.485580 
	C289.612061,212.824295 287.764252,217.791702 285.617981,223.561539 
	C280.226624,214.284958 275.256958,205.733978 269.978149,196.651093 
	C277.600830,196.999405 284.724976,198.220947 291.561584,200.223816 
	C296.113037,201.557190 291.398529,204.768295 291.626678,207.485580 
z"/>
<path fill="#202829" opacity="1.000000" stroke="none" 
	d="
M240.176804,174.828110 
	C242.128525,177.316940 243.862457,179.526596 246.404755,182.766373 
	C235.674973,182.329178 225.931564,182.164932 215.165298,182.801178 
	C219.600723,175.825546 224.609818,170.613480 229.330917,165.182434 
	C230.743896,163.556976 231.634308,164.905838 232.479401,165.869949 
	C234.996750,168.741776 237.469086,171.653061 240.176804,174.828110 
z"/>
<path fill="#20292A" opacity="1.000000" stroke="none" 
	d="
M184.966614,197.096893 
	C187.011597,196.868011 188.648926,196.682251 191.115280,196.402435 
	C185.963638,205.329224 181.080963,213.789948 175.832840,222.883911 
	C172.223251,216.023529 169.999771,209.347076 167.932816,202.609558 
	C167.273865,200.461624 168.720871,200.106674 170.339905,199.813828 
	C175.085541,198.955490 179.820084,198.035721 184.966614,197.096893 
z"/>
<path fill="#01D6FC" opacity="1.000000" stroke="none" 
	d="
M254.277985,237.867676 
	C252.767975,251.853882 241.721390,261.676636 229.071106,260.721985 
	C215.891418,259.727417 206.216690,248.744308 206.791901,235.429871 
	C207.342239,222.690948 217.841919,212.837540 230.760101,212.936966 
	C244.098557,213.039642 253.752762,223.083252 254.277985,237.867676 
z"/>
</svg>